<svg xmlns="http://www.w3.org/2000/svg" viewBox="-3066 9158 212 61.023"><defs><style>.cls-1,.cls-2,.cls-3,.cls-4{fill:none;stroke-miterlimit:10;stroke-width:2px}.cls-1,.cls-4{stroke:#737ad6}.cls-2,.cls-3{stroke:#4a5acc}.cls-2,.cls-4{stroke-linecap:round}</style></defs><g id="Capt-lieutenant" transform="translate(-3066 9158)"><path id="Path_3945" d="M115.58,50.88h27.51a1,1,0,0,1,1,1V53.7H114.58V51.88A1,1,0,0,1,115.58,50.88Z" class="cls-1" data-name="Path 3945" transform="translate(258.67 104.58) rotate(180)"/><path id="Path_3946" d="M84.644,39.074a5.7,5.7,0,0,0,0-11.383Z" class="cls-1" data-name="Path 3946"/><rect id="Rectangle_1593" width="38.17" height="26.31" class="cls-2" data-name="Rectangle 1593" rx="2" transform="translate(122.82 46.51) rotate(180)"/><line id="Line_299" x1="37.67" class="cls-2" data-name="Line 299" transform="translate(84.64 41.96)"/><line id="Line_308" x2="41.14" class="cls-1" data-name="Line 308" transform="translate(12.81 21.43)"/><line id="Line_301" x1="37.67" class="cls-2" data-name="Line 301" transform="translate(84.64 25.01)"/><path id="Path_3947" d="M12.76,5.13h44.5a.88.88,0,0,1,.88.88v5.2c7-2.74,14.09-2.31,21.2,0L108.54,1h38.61a.88.88,0,0,1,.88.88V9.27h35.25a.88.88,0,0,1,.88.88v4.91h15.28A11.61,11.61,0,0,1,211,26.66V50.54a.88.88,0,0,1-.88.88H148v4.91a.88.88,0,0,1-.88.88h-36.9a.88.88,0,0,1-.88-.88V51.42H79.28c-9.14-2.29-14.39-2.29-21.39.34L34.11,59.68a6.26,6.26,0,0,1-4.82-.36L2.32,45.6A2.72,2.72,0,0,1,1,43.27V13.5a3,3,0,0,1,1.53-2.61Z" class="cls-3" data-name="Path 3947"/><path id="Path_3948" d="M205.35,46.07V29a9.22,9.22,0,0,0-9.22-9.22H147.59a.88.88,0,0,0-.88.88V46.07a.88.88,0,0,0,.88.88h56.89A.88.88,0,0,0,205.35,46.07Z" class="cls-3" data-name="Path 3948"/><path id="Path_3949" d="M149.55,11.94h30.3a1,1,0,0,1,1,1v2.5h-32.3v-2.5A1,1,0,0,1,149.55,11.94Z" class="cls-1" data-name="Path 3949"/><path id="Path_3950" d="M109.44,4.06H144a.88.88,0,0,1,.88.88V9.31H94.8a.06.06,0,0,1,0-.11l13.95-5.07a3.71,3.71,0,0,1,.69-.07Z" class="cls-3" data-name="Path 3950"/><line id="Line_302" x1="71.68" class="cls-2" data-name="Line 302" transform="translate(133.67 33.38)"/><line id="Line_303" x2="38.28" class="cls-4" data-name="Line 303" transform="translate(90.22 33.38)"/><path id="Path_3951" d="M12.81,11.06V42.57a.88.88,0,0,0,.88.88h2.67v-.88a16.63,16.63,0,0,1,33.26,0c0,.3,0,.58,0,.88h3.54a.88.88,0,0,0,.88-.88V11.06a.88.88,0,0,0-.88-.88H13.69a.88.88,0,0,0-.88.88Z" class="cls-2" data-name="Path 3951"/><line id="Line_304" y2="45.95" class="cls-3" data-name="Line 304" transform="translate(57.45 5.81)"/><line id="Line_305" y1="39.38" class="cls-3" data-name="Line 305" transform="translate(79.33 11.94)"/><rect id="Rectangle_1594" width="6.68" height="5.01" class="cls-3" data-name="Rectangle 1594" rx=".51" transform="translate(136.25 33.38)"/><line id="Line_306" x2="58.63" class="cls-2" data-name="Line 306" transform="translate(146.72 41.7)"/><ellipse id="Ellipse_251" cx="13.7" cy="13.36" class="cls-3" data-name="Ellipse 251" rx="13.7" ry="13.36" transform="translate(19.36 28.82)"/><ellipse id="Ellipse_252" cx="2.16" cy="2.08" class="cls-1" data-name="Ellipse 252" rx="2.16" ry="2.08" transform="translate(30.9 40.1)"/><ellipse id="Ellipse_254" cx="10.26" cy="10" class="cls-1" data-name="Ellipse 254" rx="10.26" ry="10" transform="translate(22.8 32.18)"/><ellipse id="Ellipse_256" cx="6.39" cy="6.23" class="cls-3" data-name="Ellipse 256" rx="6.39" ry="6.23" transform="translate(26.67 35.95)"/><line id="Line_307" x1="41.14" class="cls-3" data-name="Line 307" transform="translate(12.81 15.51)"/><line id="Line_310" x2="56.83" class="cls-3" data-name="Line 310" transform="translate(146.59 24.87)"/><path id="Path_3959" d="M159.66,34.967l3.4-3.477L166.633,35l-3.385,3.385-1.638-1.656,1.546-1.546" class="cls-4" data-name="Path 3959" transform="translate(-5 -1)"/><path id="Path_3960" d="M159.66,34.967l3.4-3.477L166.633,35l-3.385,3.385-1.638-1.656,1.546-1.546" class="cls-4" data-name="Path 3960" transform="translate(2 -1)"/><path id="Path_3961" d="M159.66,34.967l3.4-3.477L166.633,35l-3.385,3.385-1.638-1.656,1.546-1.546" class="cls-4" data-name="Path 3961" transform="translate(9 -1)"/><path id="Path_3962" d="M159.66,34.967l3.4-3.477L166.633,35l-3.385,3.385-1.638-1.656,1.546-1.546" class="cls-4" data-name="Path 3962" transform="translate(16 -1)"/><path id="Path_3963" d="M159.66,34.967l3.4-3.477L166.633,35l-3.385,3.385-1.638-1.656,1.546-1.546" class="cls-4" data-name="Path 3963" transform="translate(23 -1)"/><path id="Path_3964" d="M159.66,34.967l3.4-3.477L166.633,35l-3.385,3.385-1.638-1.656,1.546-1.546" class="cls-4" data-name="Path 3964" transform="translate(30 -1)"/></g></svg>