<svg xmlns="http://www.w3.org/2000/svg" viewBox="-3760 8575 443.351 127.91"><defs><style>.cls-1,.cls-2,.cls-3,.cls-4,.cls-5{fill:none;stroke-width:2px}.cls-1,.cls-3,.cls-5{stroke:#4a5acc}.cls-1,.cls-2,.cls-3,.cls-4{stroke-miterlimit:10}.cls-2,.cls-4{stroke:#737ad6}.cls-3,.cls-4{stroke-linecap:round}</style></defs><g id="Fleet_Admiral" data-name="Fleet Admiral" transform="translate(-3760 8575)"><ellipse id="Ellipse_227" cx="31.79" cy="31" class="cls-1" data-name="Ellipse 227" rx="31.79" ry="31" transform="translate(206.42 27.96)"/><path id="Path_3814" d="M336.2,102.16a11.06,11.06,0,0,1-5.52,4.84,10.511,10.511,0,0,1-3.94.74h-1.124a.666.666,0,0,1-.414-.74v-4.8" class="cls-2" data-name="Path 3814" transform="translate(2)"/><path id="Path_3807" d="M37.16,96.62v3.086a.942.942,0,0,1-.958.913h-11.3a3.083,3.083,0,0,1-1.814-.593l-3.932-3.3" class="cls-2" data-name="Path 3807" transform="translate(2)"/><path id="Path_3818" d="M69.45,55.66V49.37a.71.71,0,0,0-.71-.71H40.81a1.43,1.43,0,0,0-1,.45l-6.09,6.5" class="cls-2" data-name="Path 3818"/><line id="Line_217" x1="183.07" class="cls-3" data-name="Line 217" transform="translate(14.98 55.82)"/><path id="Path_3804" d="M2.72,48.46l24.8-24.31a5.75,5.75,0,0,1,4-1.64H95L124.35,2.36A7.75,7.75,0,0,1,128.74,1h77.45a7.75,7.75,0,0,1,3.1.65L236,13.29H371.46a19.91,19.91,0,0,1,10.29,2.86l25.76,14.1a3.11,3.11,0,0,1,.56.45l5.4,6.58a.06.06,0,0,0,.09,0c1.54-1.92,5.51-.55,4.85,2.42a.06.06,0,0,0,0,.07L442.15,47a.37.37,0,0,1-.19.69l-28.64,4.1a1.28,1.28,0,0,0-.93.28L401.45,59a1.28,1.28,0,0,0-.41.61L389.78,101.5a1.15,1.15,0,0,1-1.1.83h-28a41.54,41.54,0,0,1-36.29,24.3l-7.79.28h-4.2a1.15,1.15,0,0,1-1.15-1.15V87H279.87a53.72,53.72,0,0,1-37.61,15.36H223.47v5a1.15,1.15,0,0,1-1.15,1.15H209.59a32.39,32.39,0,0,1-20-6.9l-6.86-5.38H48v11.14a1.15,1.15,0,0,1-1.15,1.15H28.6a15.56,15.56,0,0,1-10-3.65L3.05,91.81A5.75,5.75,0,0,1,1,87.41V52.57a5.75,5.75,0,0,1,1.72-4.11Z" class="cls-1" data-name="Path 3804"/><path id="Path_3805" d="M233.36,23c-22.86-1.56-37.18,15.79-35.27,37.69l.49,25.5a1.22,1.22,0,0,1-1.22,1.24H96.46a1.22,1.22,0,0,1-1.22-1.22V34.28a5.37,5.37,0,0,1,2.28-4.4L126.68,9.37a5.37,5.37,0,0,1,3.09-1s71.84.2,77,0a1.18,1.18,0,0,1,.58.13l25.43,12.79C233.43,21.59,233.53,23,233.36,23Z" class="cls-1" data-name="Path 3805"/><path id="Path_3824" d="M386.993,46.716l1.287,1.214,3.54,3.74a.74.74,0,0,1-.37,1.23l-5,1.19-2.3.55" class="cls-3" data-name="Path 3824" transform="matrix(0.995, -0.105, 0.105, 0.995, -3.145, 40.842)"/><path id="Path_3825" d="M388.73,64.16l1.37-1.29,3.74-3.54a.74.74,0,0,1,.72-.17l1,.4" class="cls-3" data-name="Path 3825"/><path id="Path_3826" d="M395.8,40.62l.47,2,1.19,5a.74.74,0,0,0,.51.54h.88" class="cls-3" data-name="Path 3826"/><path id="Path_3823" d="M398.86,48.94a5.28,5.28,0,0,0-3,10.1" class="cls-2" data-name="Path 3823"/><path id="Path_3806" d="M43,97.77v4.86a1.29,1.29,0,0,1-1.35,1.22H25.67a4.58,4.58,0,0,1-2.56-.77L15,96.79a.13.13,0,0,1,.09-.24H41.61A1.29,1.29,0,0,1,43,97.77Z" class="cls-1" data-name="Path 3806"/><path id="Path_3810" d="M400.73,43" class="cls-1" data-name="Path 3810"/><path id="Path_3811" d="M319.86,120.27h-3.3a1.22,1.22,0,0,1-1.22-1.22V103.24a1.22,1.22,0,0,1,1.22-1.22h35.26a1.22,1.22,0,0,1,1.22,1.22h0c-4.54,10.31-14.4,14.19-21.59,15.81a52.879,52.879,0,0,1-11.59,1.22Z" class="cls-1" data-name="Path 3811"/><path id="Path_3835" d="M148.27,50.64l3.75-3.75,3.85,3.76" class="cls-4" data-name="Path 3835"/><path id="Path_3836" d="M140.05,50.74l3.9-3.85,3.95,3.87" class="cls-4" data-name="Path 3836"/><path id="Path_3837" d="M164.31,50.59l3.75-3.75,3.84,3.76" class="cls-4" data-name="Path 3837"/><path id="Path_3838" d="M156.09,50.69l3.89-3.85,3.96,3.86" class="cls-4" data-name="Path 3838"/><path id="Path_3839" d="M131.99,50.74l3.89-3.85,3.95,3.87" class="cls-4" data-name="Path 3839"/><path id="Path_3840" d="M123.91,50.74l3.89-3.85,3.96,3.86" class="cls-4" data-name="Path 3840"/><path id="Path_3841" d="M116.06,50.62l3.66-3.73,3.93,3.84" class="cls-4" data-name="Path 3841"/><path id="Path_3809" d="M388.43,78.08H320.55a2.43,2.43,0,0,1-2.43-2.43V24.22a2.43,2.43,0,0,1,2.43-2.43H377.4a2.28,2.28,0,0,1,1.08.27l22.78,12.21a2.28,2.28,0,0,1,1.11,2.66L390.62,76.45a2.28,2.28,0,0,1-2.19,1.63Z" class="cls-3" data-name="Path 3809"/><path id="Path_3812" d="M348.95,102.16c-3.882,8.36-11.4,11.59-16.985,13a38.975,38.975,0,0,1-9.375,1.09h-2.669a1.038,1.038,0,0,1-.971-1.08V102.25" class="cls-1" data-name="Path 3812"/><path id="Path_3813" d="M341.877,102.16a17.833,17.833,0,0,1-10.753,8.468,22.831,22.831,0,0,1-6.649.954h-1.9a.857.857,0,0,1-.7-.954v-8.382" class="cls-1" data-name="Path 3813" transform="translate(1.114 0.229)"/><path id="Path_3815" d="M81.87,36.36H34.28a2.43,2.43,0,0,0-1.77.77L15.09,55.7a.07.07,0,0,0,.05.12H83.08V37.58a1.22,1.22,0,0,0-1.21-1.22Z" class="cls-1" data-name="Path 3815"/><path id="Path_3816" d="M78.13,55.61V41.39a1,1,0,0,0-1-1H36.43a2.08,2.08,0,0,0-1.52.66L21.33,55.5" class="cls-1" data-name="Path 3816"/><path id="Path_3817" d="M73.84,55.54V45.46a.87.87,0,0,0-.87-.87H38.9a1.74,1.74,0,0,0-1.27.55L27.74,55.69" class="cls-1" data-name="Path 3817"/><rect id="Rectangle_1585" width="94.85" height="24.32" class="cls-1" data-name="Rectangle 1585" rx="1" transform="translate(98.89 59.46)"/><path id="Path_3819" d="M100.11,51h92.42a1.22,1.22,0,0,0,1.22-1.22V46.86C196.309,32.12,210,20.788,221.213,19.33h.067a.1.1,0,0,0,0-.18L208,13.07a3.71,3.71,0,0,0-1.75-.44H129.51a3.44,3.44,0,0,0-2,.65L100.29,32.92a3.37,3.37,0,0,0-1.4,2.73V49.74A1.22,1.22,0,0,0,100.11,51Z" class="cls-1" data-name="Path 3819"/><path id="Path_3820" d="M401.34,40.61" class="cls-1" data-name="Path 3820"/><path id="Path_3821" d="M401.34,40.61a14,14,0,0,0-8,26.75" class="cls-1" data-name="Path 3821"/><path id="Path_3822" d="M399.08,37a17.23,17.23,0,0,0-9.56,32.08" class="cls-3" data-name="Path 3822"/><line id="Line_218" x2=".91" y1="3.16" class="cls-3" data-name="Line 218" transform="translate(399.08 33.88)"/><line id="Line_219" x1="2.73" y2="8.71" class="cls-3" data-name="Line 219" transform="translate(386.79 69.12)"/><line id="Line_220" x2="75.6" class="cls-1" data-name="Line 220" transform="translate(318 30.16)"/><line id="Line_221" x1="67.94" class="cls-1" data-name="Line 221" transform="translate(318.44 26.31)"/><line id="Line_222" x2="69.58" class="cls-1" data-name="Line 222" transform="translate(318.12 74.12)"/><line id="Line_223" x1="70.59" class="cls-1" data-name="Line 223" transform="translate(318.57 70.26)"/><path id="Path_3827" d="M173.22,61.9v3.43a.84.84,0,0,1-.86.82H116.25a.84.84,0,0,1-.86-.82V62" class="cls-3" data-name="Path 3827" transform="translate(0 1)"/><line id="Line_224" x2="20.29" class="cls-3" data-name="Line 224" transform="translate(173.22 62.9)"/><line id="Line_225" x2="16.01" class="cls-3" data-name="Line 225" transform="translate(99.38 62.96)"/><path id="Path_3828" d="M115.39,48.28v-3a.84.84,0,0,1,.86-.82h56.12a.84.84,0,0,1,.86.82v2.78" class="cls-3" data-name="Path 3828" transform="translate(0 -1)"/><line id="Line_226" x2="20.23" class="cls-3" data-name="Line 226" transform="translate(173.31 47.11)"/><line id="Line_227" x2="16.5" class="cls-3" data-name="Line 227" transform="translate(98.89 47.28)"/><line id="Line_228" x2="68.64" class="cls-1" data-name="Line 228" transform="translate(311.99 52.54)"/><rect id="Rectangle_1586" width="15" height="8" class="cls-3" data-name="Rectangle 1586" rx="1.42" transform="translate(376.5 56.33) rotate(180)"/><rect id="Rectangle_1587" width="15" height="8" class="cls-3" data-name="Rectangle 1587" rx="1.42" transform="translate(357.64 56.33) rotate(180)"/><rect id="Rectangle_1588" width="15" height="8" class="cls-3" data-name="Rectangle 1588" rx="1.42" transform="translate(339.36 56.33) rotate(180)"/><ellipse id="Ellipse_229" cx="28.26" cy="27.58" class="cls-1" data-name="Ellipse 229" rx="28.26" ry="27.58" transform="translate(209.95 31.38)"/><ellipse id="Ellipse_230" cx="6.29" cy="6.13" class="cls-2" data-name="Ellipse 230" rx="6.29" ry="6.13" transform="translate(231.92 52.83)"/><ellipse id="Ellipse_232" cx="24.4" cy="23.89" class="cls-2" data-name="Ellipse 232" rx="24.4" ry="23.89" transform="translate(213.81 35.07)"/><ellipse id="Ellipse_233" cx="20.34" cy="19.93" class="cls-1" data-name="Ellipse 233" rx="20.34" ry="19.93" transform="translate(217.87 39.03)"/><ellipse id="Ellipse_234" cx="12.7" cy="12.38" class="cls-1" data-name="Ellipse 234" rx="12.7" ry="12.38" transform="translate(225.51 46.58)"/><ellipse id="Ellipse_235" cx="9.73" cy="9.49" class="cls-1" data-name="Ellipse 235" rx="9.73" ry="9.49" transform="translate(228.48 49.47)"/><path id="Path_3829" d="M123.74,16l1.15,2A.62.62,0,0,0,126,18l1.54-2.86a.62.62,0,0,1,1.07,0L130.09,18a.62.62,0,0,0,1.07,0l1.6-2.86a.62.62,0,0,1,1.07,0l1.6,2.86a.62.62,0,0,0,1.07,0l1.5-2.85a.62.62,0,0,1,1.07,0L140.63,18a.67.67,0,0,0,1.13,0" class="cls-1" data-name="Path 3829" transform="translate(0 1)"/><path id="Path_3830" d="M141.71,18.12l1.58-3a.62.62,0,0,1,1.07,0L145.89,18A.62.62,0,0,0,147,18l1.59-2.86a.62.62,0,0,1,1.07,0L151.23,18a.62.62,0,0,0,1.07,0l1.53-2.86a.62.62,0,0,1,1.07,0L156.43,18a.62.62,0,0,0,1.07,0l1.59-2.86a.62.62,0,0,1,1.07,0L161.79,18a.62.62,0,0,0,1.07,0l1.54-2.86a.62.62,0,0,1,1.07,0L167,18a.62.62,0,0,0,1.07,0l1.6-2.86a.62.62,0,0,1,1.07,0l1.6,2.86a.62.62,0,0,0,1.07,0l1.54-2.87a.62.62,0,0,1,1.07,0L177.53,18a.62.62,0,0,0,1.07,0l1.73-3" class="cls-1" data-name="Path 3830" transform="translate(0 1)"/><path id="Path_3831" d="M180.3,15.11a.62.62,0,0,1,1.07,0L182.9,18a.62.62,0,0,0,1.1,0l1.59-2.86a.62.62,0,0,1,1.07,0L188.24,18a.62.62,0,0,0,1.07,0l1.53-2.86a.62.62,0,0,1,1.07,0L193.44,18a.62.62,0,0,0,1.07,0l1.59-2.86a.62.62,0,0,1,1.07,0L198.8,18a.62.62,0,0,0,1.07,0l1.54-2.86a.62.62,0,0,1,1.07,0L204,18a.62.62,0,0,0,1.07,0l1.6-2.86a.62.62,0,0,1,1.07,0l1.6,2.86a.62.62,0,0,0,1.07,0L212,14.92l1.1.39L214.54,18a.62.62,0,0,0,1.07,0l.65-1.13" class="cls-1" data-name="Path 3831" transform="translate(0 1)"/><path id="Path_3832" d="M98.89,80.24l.85-1.39a.62.62,0,0,1,1.07,0l1.53,2.87a.62.62,0,0,0,1.07,0L105,78.86a.62.62,0,0,1,1.07,0l1.61,2.86a.62.62,0,0,0,1.07,0l1.53-2.86a.62.62,0,0,1,1.07,0l1.52,2.86a.62.62,0,0,0,1.07,0l1.59-2.86a.62.62,0,0,1,1.07,0l1.63,2.86a.62.62,0,0,0,1.07,0l1.54-2.86a.62.62,0,0,1,1.07,0l1.52,2.86a.62.62,0,0,0,1.07,0l1.6-2.86a.62.62,0,0,1,1.07,0l1.6,2.86a.62.62,0,0,0,1.07,0l1.54-2.87a.62.62,0,0,1,1.07,0L134,81.71a.67.67,0,0,0,1.13,0" class="cls-1" data-name="Path 3832" transform="translate(0 -2)"/><path id="Path_3833" d="M135.06,81.81l1.58-3a.62.62,0,0,1,1.07,0l1.53,2.87a.62.62,0,0,0,1.07,0l1.59-2.86a.62.62,0,0,1,1.07,0l1.61,2.86a.62.62,0,0,0,1.07,0l1.53-2.86a.62.62,0,0,1,1.07,0l1.52,2.86a.62.62,0,0,0,1.07,0l1.59-2.86a.62.62,0,0,1,1.07,0l1.63,2.86a.62.62,0,0,0,1.07,0l1.54-2.86a.62.62,0,0,1,1.07,0l1.52,2.86a.62.62,0,0,0,1.07,0l1.6-2.86a.62.62,0,0,1,1.07,0l1.6,2.86a.62.62,0,0,0,1.07,0l1.54-2.87a.62.62,0,0,1,1.07,0l1.52,2.87a.62.62,0,0,0,1.07,0l1.73-3" class="cls-1" data-name="Path 3833" transform="translate(0 -2)"/><path id="Path_3834" d="M173.65,78.81a.62.62,0,0,1,1.07,0l1.53,2.87a.62.62,0,0,0,1.07,0l1.59-2.86a.62.62,0,0,1,1.07,0l1.61,2.86a.62.62,0,0,0,1.07,0l1.53-2.86a.62.62,0,0,1,1.07,0l1.52,2.86a.62.62,0,0,0,1.07,0l1.59-2.86a.62.62,0,0,1,1.07,0l1.63,2.86a.62.62,0,0,0,1.07,0l.52-1" class="cls-1" data-name="Path 3834" transform="translate(0 -2)"/><line id="Line_229" x1="2.26" y2="4.5" class="cls-3" data-name="Line 229" transform="translate(42.77 55.99)"/><line id="Line_231" x1="2.26" y2="4.5" class="cls-3" data-name="Line 231" transform="translate(48.55 55.99)"/><line id="Line_233" x1="2.26" y2="4.5" class="cls-3" data-name="Line 233" transform="translate(54.33 55.99)"/><line id="Line_235" x1="2.26" y2="4.5" class="cls-3" data-name="Line 235" transform="translate(60.11 55.99)"/><line id="Line_237" x1="2.26" y2="4.5" class="cls-3" data-name="Line 237" transform="translate(65.9 55.99)"/><line id="Line_239" x1="2.26" y2="4.5" class="cls-3" data-name="Line 239" transform="translate(71.68 55.99)"/><line id="Line_240" x1="2.26" y2="4.5" class="cls-3" data-name="Line 240" transform="translate(12.83 55.99)"/><line id="Line_242" x1="2.25" y2="4.5" class="cls-3" data-name="Line 242" transform="translate(18.62 55.99)"/><line id="Line_244" x1="2.26" y2="4.5" class="cls-3" data-name="Line 244" transform="translate(25.4 55.99)"/><line id="Line_246" x1="2.26" y2="4.5" class="cls-3" data-name="Line 246" transform="translate(31.18 55.99)"/><line id="Line_248" x1="2.26" y2="4.5" class="cls-3" data-name="Line 248" transform="translate(36.96 55.99)"/><line id="Line_251" x1="2.26" y2="4.5" class="cls-3" data-name="Line 251" transform="translate(77.46 55.99)"/><line id="Line_253" x1="2.26" y2="4.5" class="cls-3" data-name="Line 253" transform="translate(83.24 55.99)"/><line id="Line_255" x1="2.26" y2="4.5" class="cls-3" data-name="Line 255" transform="translate(89.02 55.99)"/><path id="Path_3842" d="M155.9,59.31l-3.87,3.87-1.88-1.88,1.77-1.77" class="cls-1" data-name="Path 3842" transform="translate(0 1)"/><path id="Path_3843" d="M147.82,59.31l-3.87,3.87-1.88-1.88,1.77-1.77" class="cls-1" data-name="Path 3843" transform="translate(0 1)"/><path id="Path_3844" d="M172.11,59.31l-3.87,3.87-1.88-1.88,1.77-1.77" class="cls-1" data-name="Path 3844" transform="translate(0 1)"/><path id="Path_3845" d="M164.04,59.31l-3.87,3.87-1.88-1.88,1.77-1.77" class="cls-1" data-name="Path 3845" transform="translate(0 1)"/><path id="Path_3846" d="M139.76,59.31l-3.87,3.87-1.88-1.88,1.77-1.77" class="cls-1" data-name="Path 3846" transform="translate(0 1)"/><path id="Path_3847" d="M131.68,59.31l-3.87,3.87-1.88-1.88,1.77-1.77" class="cls-1" data-name="Path 3847" transform="translate(0 1)"/><path id="Path_3848" d="M123.6,59.31l-3.87,3.87-1.88-1.88,1.77-1.77" class="cls-1" data-name="Path 3848" transform="translate(0 1)"/><line id="Line_217-2" y2="74" class="cls-5" data-name="Line 217" transform="translate(279.5 13.5)"/><line id="Line_218-2" y2="74" class="cls-5" data-name="Line 218" transform="translate(283.5 13.5)"/><line id="Line_219-2" y2="74" class="cls-5" data-name="Line 219" transform="translate(307.5 13.5)"/><path id="Path_3804-2" d="M0,0V74" class="cls-5" data-name="Path 3804" transform="translate(311.5 13.5)"/></g></svg>