<svg xmlns="http://www.w3.org/2000/svg" viewBox="-3760 8804 351.132 74.15"><defs><style>.cls-1,.cls-2,.cls-3,.cls-4,.cls-5{fill:none}.cls-1,.cls-3,.cls-5,.cls-6{stroke:#4a5acc}.cls-1,.cls-2,.cls-3,.cls-4{stroke-miterlimit:10}.cls-1,.cls-2,.cls-3,.cls-4,.cls-5,.cls-6{stroke-width:2px}.cls-2,.cls-4{stroke:#737ad6}.cls-2,.cls-3,.cls-5{stroke-linecap:round}.cls-6{fill:transparent}</style></defs><g id="Vice_Admiral" data-name="Vice Admiral" transform="translate(-3760 8804)"><ellipse id="Ellipse_245" cx="23.85" cy="23.26" class="cls-1" data-name="Ellipse 245" rx="23.85" ry="23.26" transform="translate(213 8.55)"/><path id="Path_3905" d="M167.6,35.24l3.62-3.61,3.7,3.63" class="cls-2" data-name="Path 3905"/><path id="Path_3906" d="M159.68,35.34l3.76-3.71,3.8,3.72" class="cls-2" data-name="Path 3906"/><path id="Path_3907" d="M151.91,35.34l3.75-3.71,3.81,3.72" class="cls-2" data-name="Path 3907"/><path id="Path_3908" d="M144.13,35.34l3.75-3.71,3.81,3.72" class="cls-2" data-name="Path 3908"/><path id="Path_3909" d="M136.56,35.22l3.53-3.59,3.78,3.7" class="cls-2" data-name="Path 3909"/><path id="Path_3919" d="M316.07,37.232V38.57l-.1,3.86a.56.56,0,0,1-.85.46l-3.29-2-1.079-.584" class="cls-3" data-name="Path 3919"/><path id="Path_3920" d="M307.68,47.44h1.41l3.86.1a.55.55,0,0,1,.48.29" class="cls-3" data-name="Path 3920"/><path id="Path_3921" d="M321.07,43.82a.55.55,0,0,1,0-.56l2-3.29.8-1.31" class="cls-3" data-name="Path 3921"/><path id="Path_3918" d="M321.12,44.7a4,4,0,0,0-6.94,3.78Z" class="cls-4" data-name="Path 3918"/><ellipse id="Ellipse_247" cx="20.45" cy="19.94" class="cls-4" data-name="Ellipse 247" rx="20.45" ry="19.94" transform="translate(216.4 11.87)"/><ellipse id="Ellipse_248" cx="4.72" cy="4.6" class="cls-4" data-name="Ellipse 248" rx="4.72" ry="4.6" transform="translate(232.13 27.21)"/><ellipse id="Ellipse_250" cx="17.31" cy="16.92" class="cls-1" data-name="Ellipse 250" rx="17.31" ry="16.92" transform="translate(219.54 14.89)"/><ellipse id="Ellipse_252" cx="11.53" cy="11.29" class="cls-1" data-name="Ellipse 252" rx="11.53" ry="11.29" transform="translate(225.32 20.52)"/><ellipse id="Ellipse_253" cx="8.3" cy="8.12" class="cls-1" data-name="Ellipse 253" rx="8.3" ry="8.12" transform="translate(228.55 23.69)"/><path id="Path_3896" d="M215.48,58.48H260a1,1,0,0,1,1,1V63H214.48V59.48A1,1,0,0,1,215.48,58.48Z" class="cls-1" data-name="Path 3896" transform="translate(475.49 121.51) rotate(180)"/><path id="Path_3898" d="M350.07,36.94l-4.95-8.33a1.76,1.76,0,0,0-.59-.76l-18.61-13.8a3.76,3.76,0,0,0-2.83-1.28H294.95L267.25,1.9a7.62,7.62,0,0,0-3.58-.9H127.16a6.11,6.11,0,0,0-4.319,1.789L107,18.66H68.7v-5a.91.91,0,0,0-.91-.91H17.19L3.51,20.9A6.1,6.1,0,0,0,1,25.83V53.34a6.1,6.1,0,0,0,3.14,5.33l10.11,5.62H65.76L72.44,71a7.35,7.35,0,0,0,5.2,2.15h87.14a7.35,7.35,0,0,0,4.54-1.57l15-12.79h27v6.57a.91.91,0,0,0,.91.91h52a.91.91,0,0,0,.91-.91V58.75c11.09-2.76,18.48-2.46,29.49,0a5.81,5.81,0,0,0,2.84-.74l33.14-18.38a9.27,9.27,0,0,1,3.79-1.14l15.5-1.18a.23.23,0,0,0,.17-.37Z" class="cls-1" data-name="Path 3898"/><line id="Line_299" x1="81.38" class="cls-4" data-name="Line 299" transform="translate(127.5 13.87)"/><path id="Path_3899" d="M165.19,69.42h-89a2.61,2.61,0,0,1-2-1L70.37,64H172.44l-5.6,4.82A2.61,2.61,0,0,1,165.19,69.42Z" class="cls-1" data-name="Path 3899"/><line id="Line_292" x1="83.02" class="cls-3" data-name="Line 292" transform="translate(11.04 38.41)"/><rect id="Rectangle_1591" width="53.67" height="33.47" class="cls-3" data-name="Rectangle 1591" rx="2" transform="translate(11.04 22.27)"/><path id="Path_3901" d="M112,24.14,129.05,7.06a2,2,0,0,1,1.41-.58h88.37a.13.13,0,0,1,.11.19s-11.76,10.76-11.76,24.45,9,23.54,9,23.54a.13.13,0,0,1-.11.18H112.3a.91.91,0,0,1-.91-.91V25.55A2,2,0,0,1,112,24.14Z" class="cls-1" data-name="Path 3901"/><path id="Path_3902" d="M209.66,52.09H115a.91.91,0,0,1-.91-.91V42.05a.91.91,0,0,1,.91-.91h89.12a.47.47,0,0,1,.42.26c.89,5.61,3,8.41,5.23,10.45a.16.16,0,0,1-.11.24Z" class="cls-1" data-name="Path 3902"/><path id="Path_3903" d="M114.13,34.76a.91.91,0,0,0,.91.91h88a.37.37,0,0,0,.37-.44s-.83-3.21.08-9.59a27.69,27.69,0,0,1,8.1-15.34s0-.17-.09-.17H132.25a1.91,1.91,0,0,0-1.35.56L114.69,26.9a1.91,1.91,0,0,0-.56,1.35Z" class="cls-1" data-name="Path 3903"/><rect id="Rectangle_1594" width="17.33" height="9.12" class="cls-1" data-name="Rectangle 1594" rx="1" transform="translate(71.7 38.41)"/><path id="Path_3904" d="M176,43v2.4a.59.59,0,0,1-.6.57H136a.59.59,0,0,1-.6-.57V43.08" class="cls-3" data-name="Path 3904" transform="translate(0 2)"/><line id="Line_294" x2="29.17" class="cls-3" data-name="Line 294" transform="translate(175.95 45.03)"/><line id="Line_295" x2="21.29" class="cls-3" data-name="Line 295" transform="translate(114.13 45.08)"/><path id="Path_3910" d="M173.72,41.17l-3.73,3.73-1.81-1.81,1.7-1.71" class="cls-3" data-name="Path 3910" transform="translate(1)"/><path id="Path_3911" d="M165.93,41.17,162.2,44.9l-1.81-1.81,1.71-1.71" class="cls-3" data-name="Path 3911" transform="translate(1)"/><path id="Path_3912" d="M158.16,41.17l-3.73,3.73-1.81-1.81,1.7-1.71" class="cls-3" data-name="Path 3912" transform="translate(1)"/><path id="Path_3913" d="M150.38,41.17l-3.73,3.73-1.81-1.81,1.7-1.71" class="cls-3" data-name="Path 3913" transform="translate(1)"/><path id="Path_3914" d="M142.59,41.17l-3.73,3.73-1.81-1.81,1.7-1.71" class="cls-3" data-name="Path 3914" transform="translate(1)"/><path id="Path_3915" d="M135.42,34.271v-2.9a.59.59,0,0,1,.6-.57h39.33a.59.59,0,0,1,.6.57v2.9" class="cls-3" data-name="Path 3915" transform="translate(0 -3)"/><line id="Line_296" x2="26.49" class="cls-3" data-name="Line 296" transform="translate(176.01 31.37)"/><line id="Line_297" x2="21.29" class="cls-3" data-name="Line 297" transform="translate(114.13 31.49)"/><line id="Line_298" x2="83" class="cls-1" data-name="Line 298" transform="translate(123.5 17.76)"/><path id="Path_3916" d="M326.84,41.58a10.49,10.49,0,0,0-18.39,10Z" class="cls-1" data-name="Path 3916"/><path id="Path_3917" d="M328.427,38.645a13.448,13.448,0,0,0-22.881,12.48" class="cls-3" data-name="Path 3917" transform="translate(-0.897 -1.646)"/><path id="Path_3931" d="M-.673,8.807,15.31,0" class="cls-5" data-name="Path 3931" transform="translate(328.5 28.06)"/><path id="Path_3932" d="M.731,5.684l10.4-5.7" class="cls-5" data-name="Path 3932" transform="translate(293.5 49.52)"/><path id="Path_3922" d="M11.25,25.11l1,1.82a.39.39,0,0,0,.68,0l1-1.82a.39.39,0,0,1,.68,0l1,1.82a.43.43,0,0,0,.72,0" class="cls-1" data-name="Path 3922" transform="translate(0 2)"/><path id="Path_3923" d="M16.26,27l1-1.88a.39.39,0,0,1,.68,0l1,1.82a.39.39,0,0,0,.68,0l1-1.81a.39.39,0,0,1,.68,0l1,1.81a.39.39,0,0,0,.68,0l1-1.81a.39.39,0,0,1,.68,0l1,1.81a.39.39,0,0,0,.68,0l1-1.82a.39.39,0,0,1,.68,0l1,1.82a.39.39,0,0,0,.68,0l1-1.82a.39.39,0,0,1,.68,0l1,1.82a.39.39,0,0,0,.68,0l1-1.82a.39.39,0,0,1,.68,0l1,1.82a.39.39,0,0,0,.68,0l1-1.82a.39.39,0,0,1,.68,0l1,1.82a.39.39,0,0,0,.68,0L40.8,25" class="cls-1" data-name="Path 3923" transform="translate(0 2)"/><path id="Path_3924" d="M40.78,25.08a.39.39,0,0,1,.68,0l1,1.82a.39.39,0,0,0,.68,0l1-1.81a.39.39,0,0,1,.68,0l1,1.81a.39.39,0,0,0,.68,0l1-1.81a.39.39,0,0,1,.68,0l1,1.81a.39.39,0,0,0,.68,0l1-1.82a.39.39,0,0,1,.68,0l1,1.82a.39.39,0,0,0,.68,0l1-1.82a.39.39,0,0,1,.68,0l1,1.82a.39.39,0,0,0,.68,0l1-1.82a.39.39,0,0,1,.68,0l1,1.82a.39.39,0,0,0,.68,0l1-1.82a.39.39,0,0,1,.68,0l1,1.82a.39.39,0,0,0,.68,0l.98-1.9" class="cls-1" data-name="Path 3924" transform="translate(0 2)"/><path id="Path_3925" d="M64.27,25" class="cls-1" data-name="Path 3925"/><line id="Line_303" x1="2.26" y2="4.51" class="cls-3" data-name="Line 303" transform="translate(295.08 13.35)"/><line id="Line_305" x1="2.26" y2="4.51" class="cls-3" data-name="Line 305" transform="translate(300.86 13.35)"/><line id="Line_307" x1="2.26" y2="4.51" class="cls-3" data-name="Line 307" transform="translate(306.64 13.35)"/><line id="Line_309" x1="2.26" y2="4.51" class="cls-3" data-name="Line 309" transform="translate(312.43 13.35)"/><line id="Line_311" x1="2.26" y2="4.51" class="cls-3" data-name="Line 311" transform="translate(318.21 13.35)"/><line id="Line_313" x1="1.51" y2="3.36" class="cls-3" data-name="Line 313" transform="translate(323.99 14.5)"/><path id="Path_3926" d="M11.25,25.11l1,1.82a.39.39,0,0,0,.68,0l1-1.82a.39.39,0,0,1,.68,0l1,1.82a.43.43,0,0,0,.72,0" class="cls-1" data-name="Path 3926" transform="translate(0 24)"/><path id="Path_3927" d="M16.26,27l1-1.88a.39.39,0,0,1,.68,0l1,1.82a.39.39,0,0,0,.68,0l1-1.81a.39.39,0,0,1,.68,0l1,1.81a.39.39,0,0,0,.68,0l1-1.81a.39.39,0,0,1,.68,0l1,1.81a.39.39,0,0,0,.68,0l1-1.82a.39.39,0,0,1,.68,0l1,1.82a.39.39,0,0,0,.68,0l1-1.82a.39.39,0,0,1,.68,0l1,1.82a.39.39,0,0,0,.68,0l1-1.82a.39.39,0,0,1,.68,0l1,1.82a.39.39,0,0,0,.68,0l1-1.82a.39.39,0,0,1,.68,0l1,1.82a.39.39,0,0,0,.68,0L40.8,25" class="cls-1" data-name="Path 3927" transform="translate(0 24)"/><path id="Path_3928" d="M40.78,25.08a.39.39,0,0,1,.68,0l1,1.82a.39.39,0,0,0,.68,0l1-1.81a.39.39,0,0,1,.68,0l1,1.81a.39.39,0,0,0,.68,0l1-1.81a.39.39,0,0,1,.68,0l1,1.81a.39.39,0,0,0,.68,0l1-1.82a.39.39,0,0,1,.68,0l1,1.82a.39.39,0,0,0,.68,0l1-1.82a.39.39,0,0,1,.68,0l1,1.82a.39.39,0,0,0,.68,0l1-1.82a.39.39,0,0,1,.68,0l1,1.82a.39.39,0,0,0,.68,0l1-1.82a.39.39,0,0,1,.68,0l1,1.82a.39.39,0,0,0,.68,0l.98-1.9" class="cls-1" data-name="Path 3928" transform="translate(0 24)"/><path id="Path_3929" d="M-.354,57.027V-.344" class="cls-6" data-name="Path 3929" transform="translate(265.5 1.5)"/><path id="Path_3930" d="M-.354,46.027V-.344" class="cls-6" data-name="Path 3930" transform="translate(294.5 12.5)"/></g></svg>